 <svg xmlns="http://www.w3.org/2000/svg" viewBox="0 0 128 128"><g fill="none" fill-rule="nonzero"><rect width="128" height="128" fill="#000" rx="24"></rect><path fill="#7A1818" d="M25.52 45.538a19.62 19.62 0 0 1 7.165-13.23 19.62 19.62 0 0 1 14.423-4.289 19.66 19.66 0 0 1 12.574 6.399l33.9 37.648a19.62 19.62 0 0 1 5.022 14.184 19.62 19.62 0 0 1-6.478 13.58 19.66 19.66 0 0 1-13.174 5.05L33 104.832a12.3 12.3 0 0 1-8.705-3.615 12.3 12.3 0 0 1-3.598-8.712v-.46zm18.508.746c-.346.28-.558.665-.605 1.113l-4.09 39.442 39.637.04c.36 0 .708-.115.993-.328l.119-.097c.337-.304.523-.701.547-1.146.023-.445-.12-.86-.424-1.197l-33.9-37.649a1.66 1.66 0 0 0-1.06-.54 1.63 1.63 0 0 0-1.217.362"></path><path fill="#FF6A33" d="m32.53 23.103 62.47.065a12.3 12.3 0 0 1 8.705 3.616 12.3 12.3 0 0 1 3.598 8.711v.461l-.048.459-6.484 62.477a12.3 12.3 0 0 1-4.49 8.287 12.315 12.315 0 0 1-16.912-1.322L23.367 43.66a12.3 12.3 0 0 1-3.146-8.885 12.315 12.315 0 0 1 12.31-11.67m12.767 18.012 38.89 43.192 4.478-43.147z"></path></g></svg> 